<svg width="120" height="32" viewBox="0 0 120 32" fill="none" xmlns="http://www.w3.org/2000/svg">
<path d="M29.6191 2.36801C29.8623 2.70081 29.8687 3.41761 29.8751 4.56321C29.8751 5.45921 29.8751 6.36161 29.8751 7.27041C29.8431 10.784 30.0415 14.4064 29.4015 17.6576C27.8655 28.2432 15.0847 33.3504 6.78394 26.496C2.54714 23.1104 0.627143 17.2544 2.07994 12.0384C3.22554 7.55201 6.75834 3.73761 11.2255 2.32321C12.8639 1.79841 15.5519 2.04801 17.6319 1.99041C19.6735 1.99041 21.8495 1.99041 23.8847 1.99041C25.7471 1.99041 27.3791 1.98401 28.3647 1.99041C28.8063 2.01601 29.3247 1.97761 29.6127 2.34241V2.35521L29.6191 2.36801Z" fill="#1E1D21"/>
<path d="M13.7599 13.4977C12.6399 14.6113 11.5391 15.7505 10.3935 16.8321C10.1823 17.0305 9.76633 17.1585 9.47833 17.1073C9.25433 17.0689 8.94073 16.7105 8.92793 16.4801C8.90873 16.1921 9.08793 15.8145 9.29913 15.5969C10.9183 13.9393 12.5695 12.3073 14.2079 10.6689C14.7647 10.1121 15.3215 9.54885 15.8847 8.99205C16.3327 8.55685 16.8575 8.53125 17.1967 8.90245C17.5359 9.26725 17.4911 9.75365 17.0687 10.1825C15.9679 11.2897 14.8607 12.3969 13.7535 13.4977H13.7599Z" fill="white"/>
<path d="M21.7215 11.0208C18.2463 14.496 14.7711 17.9712 11.2959 21.4464C10.6879 22.0544 10.1951 22.144 9.79832 21.7216C9.41432 21.312 9.50392 20.8512 10.0991 20.256C11.8463 18.5024 13.5999 16.7552 15.3471 15.008C17.0943 13.2608 18.8415 11.5008 20.6015 9.76643C20.8063 9.56803 21.1135 9.36963 21.3823 9.35683C21.6191 9.34403 21.9775 9.52963 22.0863 9.73443C22.2079 9.95843 22.1439 10.3104 22.0863 10.592C22.0479 10.752 21.8559 10.88 21.7215 11.0144V11.0208Z" fill="white"/>
<path d="M22.5343 15.6993C20.3391 17.9009 18.1375 20.0961 15.9359 22.2977C15.3855 22.8481 14.6623 22.7649 14.4319 22.1313C14.2911 21.7473 14.4319 21.4401 14.7071 21.1585C15.8271 20.0449 16.9471 18.9249 18.0607 17.8113C19.1551 16.7169 20.2431 15.6225 21.3439 14.5345C21.8175 14.0609 22.3295 14.0097 22.6943 14.3937C23.0463 14.7713 22.9951 15.2449 22.5343 15.7057V15.6993Z" fill="white"/>
<path d="M21.28 22.4512C20.9152 22.784 20.448 22.752 20.1216 22.432C19.808 22.1184 19.7888 21.6448 20.1088 21.2736C20.3328 21.0176 20.5888 20.7872 20.832 20.544C21.0496 20.3264 21.2544 20.096 21.4848 19.8912C21.8752 19.5456 22.3616 19.5456 22.6816 19.872C22.9888 20.1856 23.0144 20.6848 22.6944 21.0368C22.24 21.5296 21.7728 22.0032 21.28 22.4512Z" fill="white"/>
<path d="M8.53113 10.1952C9.51673 10.0416 10.0671 9.472 10.2335 8.4928C10.2847 8.928 10.4447 9.3184 10.7583 9.632C11.0719 9.9456 11.4495 10.1248 11.8975 10.1888C11.4559 10.2592 11.0783 10.4256 10.7647 10.7392C10.4511 11.0592 10.2847 11.4432 10.2335 11.8912C10.1695 11.4432 10.0095 11.0528 9.68953 10.7392C9.36953 10.4256 8.98553 10.2528 8.53753 10.2016L8.53113 10.1952Z" fill="white"/>
</svg>
